<svg width="412" height="411" viewBox="0 0 412 411" fill="none" xmlns="http://www.w3.org/2000/svg">
<path d="M289.65 0.00202215C291.424 0.0104816 291.424 0.0104816 293.235 0.019112C320.599 0.396237 346.382 9.69935 367.462 27.3145C368.457 28.146 369.452 28.9774 370.478 29.8341C382.395 40.1182 391.239 52.3982 398.462 66.3145C399.168 67.6642 399.168 67.6642 399.888 69.0411C402.525 74.447 404.418 80.0055 406.15 85.752C406.453 86.7533 406.453 86.7533 406.764 87.7747C415.937 119.687 410.358 153.689 394.553 182.445C386.069 196.977 373.111 208.842 361.329 220.686C360.661 221.358 359.993 222.03 359.305 222.722C355.77 226.278 352.231 229.831 348.691 233.381C345.075 237.008 341.471 240.646 337.87 244.287C335.061 247.122 332.243 249.949 329.422 252.773C328.091 254.108 326.764 255.447 325.44 256.79C307.755 274.711 288.856 287.486 264.462 294.315C262.658 294.827 262.658 294.827 260.818 295.35C230.034 302.52 197.178 296.41 170.231 280.424C164.986 277.134 160.223 273.257 155.462 269.315C154.843 268.813 154.224 268.312 153.587 267.795C151.659 266.231 149.746 264.651 147.837 263.065C147.245 262.581 146.652 262.098 146.042 261.601C141.854 258.047 139.016 254.574 138.064 248.971C138.071 248.259 138.079 247.548 138.087 246.815C138.079 246.103 138.072 245.391 138.064 244.658C139.055 238.824 142.659 234.574 146.462 230.252C147.444 229.117 148.426 227.981 149.407 226.846C150.162 225.978 150.162 225.978 150.932 225.092C152.459 223.318 153.961 221.524 155.454 219.721C155.938 219.139 156.421 218.558 156.919 217.959C157.839 216.852 158.756 215.742 159.669 214.629C163.56 209.976 167.01 205.962 173.275 205.315C174.46 205.16 174.46 205.16 175.669 205.002C183.164 205.841 188.716 210.929 194.212 215.69C208.4 227.546 222.846 232.724 241.462 231.315C253.583 229.653 263.843 224.139 272.615 215.803C273.175 215.278 273.735 214.753 274.311 214.213C280.153 208.714 285.88 203.098 291.571 197.443C292.111 196.908 292.65 196.373 293.206 195.821C296.053 192.995 298.897 190.166 301.738 187.334C304.633 184.45 307.539 181.579 310.448 178.709C312.723 176.46 314.989 174.202 317.253 171.942C318.32 170.88 319.389 169.822 320.463 168.767C334.272 155.186 344.599 140.927 344.775 120.815C344.817 105.238 339.371 92.8763 328.778 81.6036C318.423 71.3702 305.333 65.9078 290.775 65.9395C289.602 65.9419 289.602 65.9419 288.406 65.9444C281.285 66.0931 275.064 67.6174 268.462 70.3145C267.729 70.6033 266.995 70.892 266.239 71.1895C256.618 75.4742 249.133 83.3745 242.016 90.9217C238.409 94.6693 235.535 96.8476 230.251 97.6505C229.18 97.6698 229.18 97.6698 228.087 97.6895C227.378 97.7179 226.669 97.7462 225.939 97.7755C219.52 96.5808 214.799 92.0959 210.38 87.5958C209.57 86.7861 209.57 86.7861 208.743 85.9602C207.613 84.8275 206.486 83.6912 205.363 82.5513C203.645 80.8104 201.915 79.0833 200.183 77.3575C199.081 76.2502 197.98 75.1422 196.88 74.0333C196.365 73.5196 195.851 73.006 195.321 72.4768C190.794 67.8601 189.169 64.8964 189.087 58.4395C189.059 57.4315 189.03 56.4234 189.001 55.3848C190.825 43.2382 207.871 30.7156 217.168 23.7889C223.307 19.4475 229.724 15.6486 236.462 12.3145C237.296 11.8866 238.13 11.4586 238.989 11.0176C244.474 8.34548 250.069 6.37698 255.9 4.62702C256.567 4.42456 257.234 4.2221 257.922 4.0135C268.406 0.998291 278.764 -0.0527545 289.65 0.00202215Z" fill="#7031F5"/>
<path d="M207.462 116.315C208.487 116.605 208.487 116.605 209.533 116.9C225.996 121.598 240.653 128.949 253.81 139.936C255.616 141.443 257.444 142.923 259.271 144.404C260.544 145.456 261.816 146.509 263.087 147.565C263.68 148.048 264.272 148.531 264.883 149.029C269.07 152.582 271.908 156.055 272.86 161.658C272.853 162.37 272.845 163.081 272.837 163.815C272.845 164.526 272.852 165.238 272.86 165.971C271.869 171.805 268.266 176.055 264.462 180.377C263.478 181.512 262.495 182.647 261.513 183.783C261.01 184.362 260.506 184.941 259.988 185.537C258.468 187.308 256.982 189.102 255.505 190.908C254.787 191.78 254.787 191.78 254.054 192.67C253.144 193.775 252.24 194.885 251.343 196C247.411 200.739 243.609 203.795 237.587 205.252C228.799 205.831 223.685 201.033 217.456 195.583C203.098 183.071 188.411 178.108 169.462 179.315C157.367 180.895 147.063 186.507 138.325 194.811C137.765 195.335 137.206 195.859 136.63 196.399C130.695 201.986 124.881 207.695 119.099 213.44C118.547 213.987 117.995 214.535 117.427 215.099C114.516 217.989 111.609 220.882 108.704 223.777C105.74 226.731 102.764 229.672 99.7854 232.611C97.4595 234.91 95.1428 237.219 92.8283 239.53C91.7358 240.617 90.6401 241.702 89.5407 242.782C75.9553 256.149 66.3212 270.154 66.1495 289.815C66.1069 305.391 71.5534 317.753 82.1456 329.025C92.5012 339.259 105.591 344.721 120.149 344.69C121.322 344.687 121.322 344.687 122.518 344.685C129.641 344.536 135.857 343.007 142.462 340.315C143.184 340.037 143.906 339.76 144.65 339.475C154.379 335.218 162.153 326.94 169.315 319.301C172.82 315.644 175.662 313.74 180.673 312.979C181.387 312.966 182.101 312.953 182.837 312.94C183.546 312.911 184.255 312.883 184.985 312.854C191.404 314.048 196.125 318.533 200.544 323.033C201.354 323.843 201.354 323.843 202.181 324.669C203.312 325.802 204.438 326.938 205.561 328.078C207.279 329.819 209.009 331.546 210.741 333.272C211.843 334.379 212.944 335.487 214.044 336.596C214.559 337.109 215.073 337.623 215.603 338.152C220.13 342.769 221.755 345.733 221.837 352.19C221.865 353.198 221.894 354.206 221.923 355.244C220.112 367.31 203.25 379.713 194.062 386.688C166.64 406.306 134.156 414.14 100.774 409.19C70.3708 404.046 41.262 386.736 23.1637 361.504C4.13243 333.544 -4.12895 300.495 1.98788 266.86C4.45197 254.781 8.54288 243.535 14.1495 232.565C14.5105 231.845 14.8715 231.126 15.2435 230.385C22.8538 216.178 34.5863 204.725 45.8839 193.459C47.3572 191.981 48.8301 190.503 50.3026 189.024C53.3703 185.948 56.4435 182.877 59.5206 179.81C63.4264 175.916 67.3162 172.006 71.2017 168.091C74.2335 165.041 77.2748 162 80.3188 158.961C81.7553 157.525 83.1888 156.086 84.6189 154.643C98.1466 141.013 111.862 130.156 129.462 122.315C130.516 121.832 131.571 121.35 132.657 120.854C155.155 111.36 184.064 109.247 207.462 116.315Z" fill="#7031F5"/>
</svg>
