<svg width="2758" height="638" viewBox="0 0 2758 638" fill="none" xmlns="http://www.w3.org/2000/svg">
<path d="M548.466 51.4254C515.449 18.4934 470.725 0 424.097 0C377.47 0 332.745 18.4934 299.729 51.4254L283.148 68.01C278.751 72.409 276.281 78.3744 276.281 84.5946C276.281 90.8147 278.751 96.7802 283.148 101.179L316.31 134.348C320.708 138.746 326.672 141.216 332.891 141.216C339.109 141.216 345.074 138.746 349.472 134.348L366.052 117.764C381.447 102.366 402.326 93.7154 424.097 93.7154C445.868 93.7154 466.748 102.366 482.142 117.764C497.536 133.162 506.185 154.046 506.185 175.821C506.185 197.597 497.536 218.481 482.142 233.879L399.214 316.802C384.685 331.171 365.348 339.644 344.938 340.584C324.528 341.524 304.494 334.865 288.706 321.892L270.695 306.856C265.92 302.873 259.76 300.95 253.568 301.508C247.376 302.067 241.659 305.062 237.674 309.835L207.608 345.842C205.632 348.208 204.143 350.939 203.223 353.881C202.304 356.822 201.973 359.916 202.25 362.986C202.526 366.055 203.405 369.04 204.835 371.77C206.266 374.499 208.22 376.92 210.586 378.894L228.574 393.907C262.201 422.229 305.257 436.847 349.172 434.852C393.087 432.857 434.64 414.394 465.561 383.14L548.489 300.217C581.471 267.224 600 222.478 600 175.821C600 129.165 581.448 84.4186 548.466 51.4254Z" fill="#7132F5"/>
<path d="M283.148 466.085C278.75 461.688 272.786 459.217 266.567 459.217C260.348 459.217 254.384 461.688 249.986 466.085L233.405 482.67C218.011 498.068 197.132 506.718 175.36 506.718C153.589 506.718 132.71 498.068 117.316 482.67C101.921 467.272 93.2727 446.388 93.2727 424.612C93.2727 402.836 101.921 381.952 117.316 366.554L200.244 283.632C214.767 269.253 234.106 260.774 254.519 259.833C274.932 258.893 294.968 265.559 310.751 278.541L328.763 293.578C333.538 297.56 339.698 299.484 345.89 298.925C352.082 298.366 357.799 295.371 361.784 290.599L391.85 254.591C393.825 252.226 395.315 249.494 396.234 246.553C397.154 243.611 397.485 240.517 397.208 237.448C396.931 234.378 396.053 231.393 394.622 228.664C393.192 225.934 391.238 223.513 388.872 221.539L370.884 206.526C337.257 178.205 294.201 163.587 250.286 165.582C206.371 167.577 164.818 186.039 133.897 217.293L50.9687 300.216C18.2225 333.261 -0.103606 377.934 0.00044063 424.461C0.104487 470.987 18.6303 515.578 51.5239 548.476C84.4175 581.374 129 599.9 175.517 599.999C222.033 600.099 266.695 581.765 299.729 549.008L316.31 532.424C320.706 528.025 323.176 522.059 323.176 515.839C323.176 509.619 320.706 503.653 316.31 499.254L283.148 466.085Z" fill="#7132F5"/>
<path d="M2508.94 637.2C2498.14 637.2 2486.14 635 2472.94 630.6C2460.14 626.6 2448.74 621.8 2438.74 616.2L2468.14 552C2474.94 555.6 2481.14 558.4 2486.74 560.4C2492.74 562.8 2497.94 564 2502.34 564C2510.74 564 2518.14 561.6 2524.54 556.8C2530.94 552.4 2536.14 545.8 2540.14 537L2575.54 453.6L2670.94 210H2757.94L2621.74 535.8C2613.34 555.8 2604.54 573.4 2595.34 588.6C2586.14 604.2 2574.74 616.2 2561.14 624.6C2547.94 633 2530.54 637.2 2508.94 637.2ZM2554.54 510L2417.14 210H2504.14L2604.34 453.6L2630.14 510H2554.54Z" fill="#141418"/>
<path d="M2301.29 510V90H2380.49V510H2301.29Z" fill="#141418"/>
<path d="M2104.66 517.2C2075.06 517.2 2048.86 510.6 2026.06 497.4C2003.26 483.8 1985.26 465.2 1972.06 441.6C1959.26 418 1952.86 390.8 1952.86 360C1952.86 329.2 1959.46 302 1972.66 278.4C1986.26 254.8 2004.66 236.4 2027.86 223.2C2051.46 209.6 2078.46 202.8 2108.86 202.8C2135.26 202.8 2159.46 209.8 2181.46 223.8C2203.86 237.4 2221.66 257.6 2234.86 284.4C2248.46 310.8 2255.26 343 2255.26 381H2027.86L2035.06 373.8C2035.06 388.6 2038.66 401.6 2045.86 412.8C2053.46 423.6 2063.06 432 2074.66 438C2086.66 443.6 2099.46 446.4 2113.06 446.4C2129.46 446.4 2142.86 443 2153.26 436.2C2163.66 429 2171.66 419.8 2177.26 408.6L2248.06 436.2C2239.66 453 2228.66 467.6 2215.06 480C2201.86 492 2186.06 501.2 2167.66 507.6C2149.26 514 2128.26 517.2 2104.66 517.2ZM2039.26 329.4L2032.06 322.2H2176.66L2170.06 329.4C2170.06 315 2166.66 303.6 2159.86 295.2C2153.06 286.4 2144.66 280 2134.66 276C2125.06 272 2115.66 270 2106.46 270C2097.26 270 2087.46 272 2077.06 276C2066.66 280 2057.66 286.4 2050.06 295.2C2042.86 303.6 2039.26 315 2039.26 329.4Z" fill="#141418"/>
<path d="M1743.71 637.8C1720.91 637.8 1700.71 636.2 1683.11 633C1665.51 629.8 1650.71 625.6 1638.71 620.4C1626.71 615.2 1616.91 610 1609.31 604.8L1640.51 541.2C1646.11 544.4 1653.51 548 1662.71 552C1671.91 556.4 1682.91 560 1695.71 562.8C1708.51 566 1723.31 567.6 1740.11 567.6C1756.11 567.6 1770.11 564.4 1782.11 558C1794.51 552 1804.11 542.4 1810.91 529.2C1818.11 516.4 1821.71 500 1821.71 480V210H1900.91V477.6C1900.91 511.2 1894.51 540 1881.71 564C1868.91 588.4 1850.71 606.8 1827.11 619.2C1803.91 631.6 1776.11 637.8 1743.71 637.8ZM1728.11 501.6C1700.51 501.6 1676.51 495.6 1656.11 483.6C1636.11 471.6 1620.51 454.8 1609.31 433.2C1598.11 411.6 1592.51 386 1592.51 356.4C1592.51 325.2 1598.11 298.2 1609.31 275.4C1620.51 252.2 1636.11 234.4 1656.11 222C1676.51 209.2 1700.51 202.8 1728.11 202.8C1752.11 202.8 1772.91 209.2 1790.51 222C1808.11 234.4 1821.71 252.2 1831.31 275.4C1840.91 298.6 1845.71 326.2 1845.71 358.2C1845.71 387 1840.91 412.2 1831.31 433.8C1821.71 455.4 1808.11 472.2 1790.51 484.2C1772.91 495.8 1752.11 501.6 1728.11 501.6ZM1750.91 435C1764.51 435 1776.31 431.6 1786.31 424.8C1796.71 417.6 1804.71 408 1810.31 396C1815.91 383.6 1818.71 369.6 1818.71 354C1818.71 338 1815.71 324 1809.71 312C1804.11 300 1796.11 290.6 1785.71 283.8C1775.71 277 1763.91 273.6 1750.31 273.6C1736.31 273.6 1723.91 277 1713.11 283.8C1702.31 290.6 1693.91 300 1687.91 312C1681.91 324 1678.71 338 1678.31 354C1678.71 369.6 1681.91 383.6 1687.91 396C1693.91 408 1702.31 417.6 1713.11 424.8C1724.31 431.6 1736.91 435 1750.91 435Z" fill="#141418"/>
<path d="M1469.99 510L1467.59 449.4V358.2C1467.59 340.2 1465.59 324.8 1461.59 312C1457.99 299.2 1451.99 289.4 1443.59 282.6C1435.59 275.4 1424.59 271.8 1410.59 271.8C1397.79 271.8 1386.19 274.6 1375.79 280.2C1365.39 285.8 1356.59 294.4 1349.39 306L1279.79 282C1285.39 269.2 1293.59 256.8 1304.39 244.8C1315.19 232.4 1329.19 222.4 1346.39 214.8C1363.99 206.8 1385.39 202.8 1410.59 202.8C1440.99 202.8 1466.19 208.6 1486.19 220.2C1506.59 231.8 1521.59 248.2 1531.19 269.4C1541.19 290.2 1545.99 315 1545.59 343.8L1543.79 510H1469.99ZM1385.99 517.2C1349.99 517.2 1321.99 509.2 1301.99 493.2C1282.39 477.2 1272.59 454.6 1272.59 425.4C1272.59 393.4 1283.19 369.4 1304.39 353.4C1325.99 337 1356.19 328.8 1394.99 328.8H1471.19V387.6H1422.59C1396.59 387.6 1378.59 390.8 1368.59 397.2C1358.59 403.2 1353.59 411.8 1353.59 423C1353.59 431.8 1357.59 438.8 1365.59 444C1373.59 448.8 1384.79 451.2 1399.19 451.2C1412.39 451.2 1423.99 448.2 1433.99 442.2C1444.39 435.8 1452.59 427.8 1458.59 418.2C1464.59 408.2 1467.59 398 1467.59 387.6H1486.79C1486.79 428.4 1478.99 460.2 1463.39 483C1448.19 505.8 1422.39 517.2 1385.99 517.2Z" fill="#141418"/>
<path d="M1176.25 517.2C1143.05 517.2 1117.85 509 1100.65 492.6C1083.85 476.2 1075.45 452.8 1075.45 422.4V116.4H1154.65V405C1154.65 417.8 1157.45 427.6 1163.05 434.4C1168.65 440.8 1176.85 444 1187.65 444C1191.65 444 1196.05 443.2 1200.85 441.6C1205.65 439.6 1210.65 436.8 1215.85 433.2L1243.45 492.6C1233.85 499.8 1223.05 505.6 1211.05 510C1199.45 514.8 1187.85 517.2 1176.25 517.2ZM1026.85 277.2V210H1229.65V277.2H1026.85Z" fill="#141418"/>
<path d="M840.6 517.2C819.4 517.2 799.6 514.6 781.2 509.4C762.8 504.2 746.4 497 732 487.8C717.6 478.2 705.6 467.6 696 456C686.8 444.4 680.8 432.2 678 419.4L758.4 395.4C763.6 409 772.8 420.8 786 430.8C799.2 440.4 815.8 445.4 835.8 445.8C857 446.2 874.2 441.6 887.4 432C901 422.4 907.8 410 907.8 394.8C907.8 381.6 902.4 370.6 891.6 361.8C881.2 352.6 866.8 345.6 848.4 340.8L793.8 326.4C773.4 321.2 755.4 313.4 739.8 303C724.2 292.2 712 279 703.2 263.4C694.4 247.8 690 229.6 690 208.8C690 169.2 703 138.4 729 116.4C755.4 93.9998 792.6 82.7998 840.6 82.7998C867.4 82.7998 890.8 86.7998 910.8 94.7998C931.2 102.4 948.2 113.4 961.8 127.8C975.4 142.2 985.8 159.2 993 178.8L913.2 203.4C908.4 189.8 899.6 178.2 886.8 168.6C874 159 857.8 154.2 838.2 154.2C818.2 154.2 802.4 158.8 790.8 168C779.6 177.2 774 190.2 774 207C774 220.2 778.4 230.6 787.2 238.2C796.4 245.8 808.8 251.6 824.4 255.6L879.6 269.4C915.6 278.2 943.6 294 963.6 316.8C983.6 339.6 993.6 365 993.6 393C993.6 417.8 987.6 439.6 975.6 458.4C963.6 476.8 946.2 491.2 923.4 501.6C900.6 512 873 517.2 840.6 517.2Z" fill="#141418"/>
</svg>
